<svg width="254" height="57" viewBox="0 0 254 57" fill="none" xmlns="http://www.w3.org/2000/svg">
<g clip-path="url(#clip0_553_1370)">
<mask id="mask0_553_1370" style="mask-type:luminance" maskUnits="userSpaceOnUse" x="0" y="0" width="55" height="55">
<path d="M54.804 0H0V54.8704H54.804V0Z" fill="white"/>
</mask>
<g mask="url(#mask0_553_1370)">
<path fill-rule="evenodd" clip-rule="evenodd" d="M12.0569 0H0V41.1527C0 48.7286 6.13414 54.8704 13.701 54.8704H25.7578V13.7176C25.7578 6.14158 19.6237 0 12.0569 0ZM42.7471 0C35.1803 0 29.046 6.14158 29.046 13.7176V54.8704H41.1029C48.6697 54.8704 54.804 48.7286 54.804 41.1527V0H42.7471Z" fill="url(#paint0_linear_553_1370)"/>
</g>
<path d="M89.5147 38.4684C90.2075 38.4684 90.8725 38.3991 91.51 38.261C92.1474 38.1227 92.7845 37.9567 93.422 37.7631V42.3672C92.757 42.6439 91.9255 42.8789 90.9279 43.0725C89.9581 43.2937 88.8913 43.4042 87.7275 43.4042C86.3697 43.4042 85.1505 43.183 84.0697 42.7406C83.0167 42.2982 82.1715 41.5376 81.5343 40.4592C80.9247 39.3532 80.6199 37.8324 80.6199 35.8966V24.9879H77.6687V22.3749L81.0771 20.3009L82.8643 15.5309H86.8131V20.3424H93.1726V24.9879H86.8131V35.8966C86.8131 36.754 87.0625 37.4038 87.5613 37.8462C88.0599 38.261 88.7111 38.4684 89.5147 38.4684Z" fill="white"/>
<path d="M107.594 19.9276C109.7 19.9276 111.501 20.3286 112.997 21.1305C114.521 21.9323 115.699 23.0938 116.53 24.6146C117.362 26.1356 117.777 28.0021 117.777 30.2142V33.2005H103.146C103.202 34.9428 103.714 36.3114 104.684 37.307C105.682 38.3025 107.054 38.8001 108.799 38.8001C110.268 38.8001 111.598 38.662 112.79 38.3854C113.981 38.0813 115.214 37.6251 116.489 37.0167V41.7867C115.38 42.3396 114.203 42.7406 112.956 42.9894C111.737 43.2661 110.254 43.4042 108.508 43.4042C106.236 43.4042 104.227 42.9894 102.481 42.1599C100.735 41.3027 99.3639 40.0169 98.3663 38.3025C97.3687 36.5881 96.8699 34.4311 96.8699 31.8319C96.8699 29.1772 97.3133 26.979 98.2001 25.2368C99.1145 23.4671 100.375 22.1397 101.982 21.2549C103.59 20.37 105.46 19.9276 107.594 19.9276ZM107.635 24.3243C106.444 24.3243 105.446 24.7115 104.643 25.4856C103.867 26.2599 103.409 27.4628 103.271 29.0944H111.958C111.958 28.1817 111.792 27.3659 111.459 26.6471C111.155 25.9282 110.684 25.3613 110.046 24.9465C109.409 24.5317 108.605 24.3243 107.635 24.3243Z" fill="white"/>
<path d="M132.291 43.4042C130.047 43.4042 128.135 43.0034 126.555 42.2015C124.976 41.3719 123.771 40.1 122.939 38.3854C122.108 36.671 121.692 34.4727 121.692 31.7905C121.692 29.0251 122.163 26.7716 123.105 25.0294C124.048 23.2874 125.35 22.0016 127.013 21.172C128.703 20.3424 130.643 19.9276 132.832 19.9276C134.384 19.9276 135.727 20.0797 136.864 20.3839C138.027 20.688 139.039 21.0475 139.898 21.4623L138.069 26.2323C137.099 25.8451 136.185 25.5272 135.326 25.2782C134.494 25.0294 133.663 24.9051 132.832 24.9051C131.751 24.9051 130.85 25.1677 130.13 25.693C129.41 26.1909 128.869 26.9512 128.509 27.9743C128.176 28.9698 128.01 30.228 128.01 31.749C128.01 33.2422 128.19 34.4866 128.551 35.4819C128.938 36.4498 129.493 37.1827 130.213 37.6803C130.934 38.1503 131.806 38.3854 132.832 38.3854C134.134 38.3854 135.284 38.2196 136.282 37.8877C137.279 37.5282 138.249 37.0443 139.191 36.436V41.7036C138.249 42.312 137.251 42.7406 136.199 42.9894C135.173 43.2661 133.871 43.4042 132.291 43.4042Z" fill="white"/>
<path d="M150.872 17.8952C150.872 19.0013 150.831 20.0659 150.748 21.089C150.692 22.1121 150.637 22.8312 150.581 23.2459H150.914C151.413 22.4716 151.995 21.8494 152.66 21.3794C153.325 20.8816 154.059 20.5221 154.863 20.3009C155.694 20.0521 156.567 19.9276 157.481 19.9276C159.116 19.9276 160.543 20.218 161.762 20.7987C162.982 21.3794 163.924 22.278 164.589 23.4948C165.282 24.7115 165.628 26.2876 165.628 28.2234V42.9894H159.435V29.758C159.435 28.1265 159.13 26.9097 158.52 26.1078C157.938 25.2782 157.024 24.8634 155.777 24.8634C154.53 24.8634 153.546 25.1539 152.826 25.7347C152.133 26.3152 151.634 27.1586 151.33 28.2648C151.025 29.3708 150.872 30.7259 150.872 32.3296V42.9894H144.679V11.4661H150.872V17.8952Z" fill="white"/>
<path d="M184.939 19.9276C185.244 19.9276 185.604 19.9414 186.02 19.9691C186.435 19.9967 186.768 20.0382 187.017 20.0935L186.56 25.9004C186.366 25.8451 186.075 25.8037 185.687 25.7761C185.327 25.7208 185.008 25.693 184.731 25.693C183.928 25.693 183.152 25.8037 182.404 26.0249C181.655 26.2185 180.976 26.5366 180.367 26.979C179.785 27.4214 179.314 28.016 178.953 28.7624C178.621 29.4815 178.455 30.3801 178.455 31.4585V42.9894H172.261V20.3424H176.958L177.873 24.1584H178.164C178.607 23.384 179.161 22.679 179.827 22.043C180.492 21.407 181.254 20.8954 182.113 20.5083C182.999 20.1212 183.941 19.9276 184.939 19.9276Z" fill="white"/>
<path d="M218.044 19.9276C220.621 19.9276 222.561 20.5913 223.864 21.9186C225.193 23.2183 225.859 25.3199 225.859 28.2233V42.9894H219.666V29.758C219.666 28.1264 219.388 26.9097 218.834 26.1078C218.28 25.2782 217.421 24.8634 216.257 24.8634C214.622 24.8634 213.458 25.4442 212.766 26.6056C212.073 27.7669 211.726 29.4399 211.726 31.6245V42.9894H205.533V29.758C205.533 28.6796 205.409 27.7807 205.159 27.0619C204.91 26.343 204.536 25.8037 204.037 25.4442C203.538 25.057 202.901 24.8634 202.125 24.8634C200.989 24.8634 200.088 25.1539 199.423 25.7346C198.758 26.3152 198.287 27.1585 198.01 28.2648C197.733 29.3708 197.594 30.7259 197.594 32.3295V42.9894H191.401V20.3424H196.14L196.971 23.2459H197.303C197.774 22.4716 198.356 21.8494 199.049 21.3794C199.742 20.8816 200.504 20.5221 201.335 20.3009C202.194 20.052 203.053 19.9276 203.912 19.9276C205.575 19.9276 206.988 20.2041 208.152 20.7572C209.316 21.2826 210.202 22.1121 210.812 23.2459H211.352C212.045 22.0844 213.001 21.2411 214.22 20.7157C215.467 20.1903 216.742 19.9276 218.044 19.9276Z" fill="white"/>
<path d="M253.118 31.6245C253.118 33.5048 252.853 35.1778 252.327 36.6433C251.828 38.1089 251.094 39.3533 250.124 40.3764C249.181 41.3719 248.031 42.1322 246.674 42.6577C245.316 43.1554 243.779 43.4042 242.06 43.4042C240.481 43.4042 239.012 43.1554 237.654 42.6577C236.325 42.1322 235.173 41.3719 234.203 40.3764C233.236 39.3533 232.471 38.1089 231.917 36.6433C231.392 35.1778 231.129 33.5048 231.129 31.6245C231.129 29.1082 231.571 26.9928 232.458 25.2782C233.345 23.5362 234.619 22.209 236.284 21.2964C237.946 20.3839 239.912 19.9276 242.185 19.9276C244.32 19.9276 246.203 20.3839 247.838 21.2964C249.472 22.209 250.762 23.5362 251.703 25.2782C252.645 26.9928 253.118 29.1082 253.118 31.6245ZM237.446 31.6245C237.446 33.1177 237.6 34.3758 237.904 35.399C238.237 36.3945 238.749 37.1548 239.441 37.6803C240.135 38.178 241.035 38.427 242.143 38.427C243.251 38.427 244.138 38.178 244.804 37.6803C245.495 37.1548 245.995 36.3945 246.299 35.399C246.632 34.3758 246.798 33.1177 246.798 31.6245C246.798 30.1313 246.632 28.887 246.299 27.8914C245.995 26.8959 245.495 26.1494 244.804 25.6516C244.112 25.1539 243.209 24.9051 242.102 24.9051C240.466 24.9051 239.275 25.4718 238.528 26.6056C237.808 27.7117 237.446 29.3846 237.446 31.6245Z" fill="white"/>
</g>
<defs>
<linearGradient id="paint0_linear_553_1370" x1="27.402" y1="0" x2="27.402" y2="54.8704" gradientUnits="userSpaceOnUse">
<stop stop-color="#FFE927"/>
<stop offset="1" stop-color="#FFDBB0"/>
</linearGradient>
<clipPath id="clip0_553_1370">
<rect width="254" height="57" fill="white"/>
</clipPath>
</defs>
</svg>
