<svg width="116" height="26" viewBox="0 0 116 26" fill="none" xmlns="http://www.w3.org/2000/svg">
<rect width="116" height="26" fill="current"/>
<mask id="mask0_42_1024" style="mask-type:luminance" maskUnits="userSpaceOnUse" x="0" y="0" width="26" height="26">
<path d="M25.0286 0H0V25.0286H25.0286V0Z" fill="white"/>
</mask>
<g mask="url(#mask0_42_1024)">
<path fill-rule="evenodd" clip-rule="evenodd" d="M5.50628 0H0V18.7714C0 22.2271 2.80142 25.0286 6.25714 25.0286H11.7634V6.25714C11.7634 2.80142 8.962 0 5.50628 0ZM19.5223 0C16.0666 0 13.2651 2.80142 13.2651 6.25714V25.0286H18.7714C22.2271 25.0286 25.0286 22.2271 25.0286 18.7714V0H19.5223Z" fill="url(#paint0_linear_42_1024)"/>
</g>
<path d="M40.8807 17.547C41.1971 17.547 41.5008 17.5154 41.7919 17.4524C42.083 17.3893 42.374 17.3136 42.6651 17.2253V19.3254C42.3614 19.4516 41.9817 19.5588 41.5261 19.6471C41.0832 19.748 40.596 19.7984 40.0645 19.7984C39.4444 19.7984 38.8876 19.6975 38.394 19.4957C37.9131 19.2939 37.5271 18.947 37.2361 18.4551C36.9577 17.9506 36.8185 17.2569 36.8185 16.3739V11.398H35.4707V10.2061L37.0273 9.26006L37.8435 7.08427H39.6469V9.27898H42.5512V11.398H39.6469V16.3739C39.6469 16.765 39.7608 17.0614 39.9886 17.2632C40.2163 17.4524 40.5137 17.547 40.8807 17.547Z" fill="white"/>
<path d="M49.1374 9.08978C50.0991 9.08978 50.9217 9.27267 51.6051 9.63846C52.3011 10.0042 52.839 10.534 53.2186 11.2277C53.5983 11.9215 53.7881 12.7729 53.7881 13.7819V15.1441H47.1062C47.1315 15.9388 47.3656 16.5631 47.8086 17.0172C48.2642 17.4713 48.8906 17.6983 49.6878 17.6983C50.3586 17.6983 50.966 17.6353 51.5102 17.5091C52.0543 17.3704 52.6175 17.1623 53.1996 16.8848V19.0606C52.6934 19.3128 52.1556 19.4957 51.5861 19.6092C51.0293 19.7354 50.3522 19.7984 49.555 19.7984C48.5173 19.7984 47.5998 19.6092 46.8025 19.2308C46.0052 18.8398 45.3788 18.2533 44.9232 17.4713C44.4676 16.6893 44.2398 15.7054 44.2398 14.5198C44.2398 13.3089 44.4423 12.3062 44.8473 11.5115C45.2649 10.7043 45.8407 10.0988 46.5747 9.69522C47.3087 9.29159 48.1629 9.08978 49.1374 9.08978ZM49.1563 11.0953C48.6122 11.0953 48.1566 11.2719 47.7896 11.625C47.4352 11.9782 47.2264 12.5269 47.1632 13.2711H51.1305C51.1305 12.8548 51.0546 12.4827 50.9027 12.1548C50.7635 11.8269 50.5484 11.5683 50.2573 11.3791C49.9663 11.1899 49.5993 11.0953 49.1563 11.0953Z" fill="white"/>
<path d="M60.4165 19.7984C59.3914 19.7984 58.5182 19.6156 57.7969 19.2498C57.0756 18.8714 56.5251 18.2912 56.1454 17.5091C55.7658 16.7271 55.5759 15.7244 55.5759 14.5009C55.5759 13.2395 55.7911 12.2116 56.2213 11.4169C56.6516 10.6223 57.2464 10.0358 58.0057 9.65738C58.7777 9.27898 59.6635 9.08978 60.6633 9.08978C61.372 9.08978 61.9857 9.15915 62.5046 9.2979C63.0361 9.43664 63.498 9.60062 63.8903 9.78981L63.0551 11.9656C62.6121 11.789 62.1945 11.644 61.8022 11.5304C61.4226 11.4169 61.0429 11.3602 60.6633 11.3602C60.1697 11.3602 59.7584 11.48 59.4294 11.7196C59.1004 11.9467 58.8536 12.2935 58.6891 12.7602C58.5372 13.2143 58.4613 13.7882 58.4613 14.482C58.4613 15.1631 58.5435 15.7307 58.7081 16.1847C58.8852 16.6262 59.1383 16.9605 59.4674 17.1875C59.7964 17.4019 60.195 17.5091 60.6633 17.5091C61.2581 17.5091 61.7832 17.4335 62.2388 17.2821C62.6944 17.1181 63.1373 16.8974 63.5676 16.6199V19.0227C63.1373 19.3002 62.6817 19.4957 62.2009 19.6092C61.7326 19.7354 61.1378 19.7984 60.4165 19.7984Z" fill="white"/>
<path d="M68.9024 8.1627C68.9024 8.66723 68.8834 9.15285 68.8454 9.61954C68.8201 10.0862 68.7948 10.4142 68.7695 10.6034H68.9214C69.1492 10.2502 69.4149 9.9664 69.7186 9.75198C70.0224 9.52494 70.3577 9.36096 70.7247 9.26006C71.1044 9.14654 71.503 9.08978 71.9206 9.08978C72.6673 9.08978 73.319 9.22222 73.8758 9.4871C74.4326 9.75198 74.8629 10.1619 75.1666 10.7169C75.483 11.2719 75.6412 11.9908 75.6412 12.8738V19.6092H72.8128V13.5738C72.8128 12.8296 72.6736 12.2746 72.3952 11.9088C72.1294 11.5304 71.7118 11.3412 71.1423 11.3412C70.5728 11.3412 70.1236 11.4737 69.7946 11.7386C69.4782 12.0034 69.2504 12.3881 69.1112 12.8927C68.972 13.3972 68.9024 14.0153 68.9024 14.7468V19.6092H66.074V5.23012H68.9024V8.1627Z" fill="white"/>
<path d="M84.4603 9.08978C84.5995 9.08978 84.764 9.09609 84.9539 9.1087C85.1437 9.12131 85.2955 9.14023 85.4094 9.16546L85.2006 11.8142C85.112 11.789 84.9792 11.7701 84.802 11.7575C84.6375 11.7323 84.4919 11.7196 84.3654 11.7196C83.9984 11.7196 83.6441 11.7701 83.3024 11.871C82.9607 11.9593 82.6506 12.1044 82.3722 12.3062C82.1065 12.508 81.8913 12.7792 81.7268 13.1197C81.575 13.4477 81.499 13.8576 81.499 14.3495V19.6092H78.6706V9.27898H80.8157L81.2333 11.0196H81.3662C81.5686 10.6664 81.8217 10.3448 82.1255 10.0547C82.4292 9.76459 82.7772 9.53124 83.1695 9.35466C83.5745 9.17807 84.0047 9.08978 84.4603 9.08978Z" fill="white"/>
<path d="M99.5793 9.08978C100.756 9.08978 101.642 9.3925 102.237 9.99793C102.844 10.5908 103.148 11.5494 103.148 12.8738V19.6092H100.32V13.5738C100.32 12.8296 100.193 12.2746 99.9399 11.9088C99.6868 11.5304 99.2945 11.3412 98.763 11.3412C98.0164 11.3412 97.4849 11.6061 97.1685 12.1359C96.8521 12.6656 96.6939 13.4287 96.6939 14.4252V19.6092H93.8655V13.5738C93.8655 13.0819 93.8086 12.6719 93.6947 12.344C93.5808 12.0161 93.4099 11.7701 93.1822 11.6061C92.9544 11.4295 92.6633 11.3412 92.3089 11.3412C91.7901 11.3412 91.3788 11.4737 91.0751 11.7386C90.7714 12.0034 90.5562 12.3881 90.4297 12.8927C90.3031 13.3972 90.2399 14.0153 90.2399 14.7468V19.6092H87.4114V9.27898H89.5755L89.9551 10.6034H90.107C90.3221 10.2502 90.5879 9.9664 90.9042 9.75198C91.2206 9.52494 91.5686 9.36096 91.9483 9.26006C92.3406 9.14654 92.7329 9.08978 93.1252 9.08978C93.8845 9.08978 94.5299 9.21591 95.0614 9.46818C95.5929 9.70783 95.9979 10.0862 96.2763 10.6034H96.5231C96.8395 10.0736 97.2761 9.68891 97.8329 9.44926C98.4024 9.2096 98.9845 9.08978 99.5793 9.08978Z" fill="white"/>
<path d="M115.597 14.4252C115.597 15.2829 115.476 16.046 115.236 16.7145C115.008 17.383 114.673 17.9506 114.23 18.4173C113.799 18.8714 113.274 19.2182 112.654 19.4579C112.034 19.6849 111.332 19.7984 110.547 19.7984C109.826 19.7984 109.155 19.6849 108.535 19.4579C107.928 19.2182 107.402 18.8714 106.959 18.4173C106.517 17.9506 106.168 17.383 105.915 16.7145C105.675 16.046 105.555 15.2829 105.555 14.4252C105.555 13.2774 105.757 12.3125 106.162 11.5304C106.567 10.7358 107.149 10.1304 107.909 9.71414C108.668 9.2979 109.566 9.08978 110.604 9.08978C111.579 9.08978 112.439 9.2979 113.186 9.71414C113.932 10.1304 114.521 10.7358 114.951 11.5304C115.381 12.3125 115.597 13.2774 115.597 14.4252ZM108.44 14.4252C108.44 15.1063 108.51 15.6802 108.649 16.1469C108.801 16.601 109.035 16.9478 109.351 17.1875C109.668 17.4145 110.079 17.5281 110.585 17.5281C111.091 17.5281 111.496 17.4145 111.8 17.1875C112.116 16.9478 112.344 16.601 112.483 16.1469C112.635 15.6802 112.711 15.1063 112.711 14.4252C112.711 13.7441 112.635 13.1765 112.483 12.7224C112.344 12.2683 112.116 11.9278 111.8 11.7007C111.484 11.4737 111.072 11.3602 110.566 11.3602C109.819 11.3602 109.275 11.6187 108.934 12.1359C108.605 12.6404 108.44 13.4035 108.44 14.4252Z" fill="white"/>
<defs>
<linearGradient id="paint0_linear_42_1024" x1="12.5143" y1="0" x2="12.5143" y2="25.0286" gradientUnits="userSpaceOnUse">
<stop stop-color="#FFE927"/>
<stop offset="1" stop-color="#FFDBB0"/>
</linearGradient>
</defs>
</svg>
