<?xml version="1.0" standalone="no"?>
<!DOCTYPE svg PUBLIC "-//W3C//DTD SVG 20010904//EN"
 "http://www.w3.org/TR/2001/REC-SVG-20010904/DTD/svg10.dtd">
<svg version="1.0" xmlns="http://www.w3.org/2000/svg"
 width="201.000000pt" height="201.000000pt" viewBox="0 0 201.000000 201.000000"
 preserveAspectRatio="xMidYMid meet">
<metadata>
Created by potrace 1.14, written by Peter Selinger 2001-2017
</metadata>
<g transform="translate(0.000000,201.000000) scale(0.100000,-0.100000)"
fill="#000000" stroke="none">
<path d="M0 1010 l0 -1000 424 0 424 0 10 68 c9 60 8 72 -11 115 -12 26 -24
47 -27 47 -3 0 -10 -15 -15 -33 -8 -27 -15 -32 -40 -32 -28 0 -30 3 -33 40 -1
22 6 85 15 139 20 113 35 131 80 106 21 -12 31 -30 44 -80 9 -36 18 -63 19
-60 1 3 10 50 20 105 15 90 16 102 2 118 -8 9 -27 17 -41 17 -53 0 -737 111
-769 125 -18 8 -37 26 -42 40 -7 19 6 123 51 408 34 210 66 393 73 407 25 54
29 54 461 -15 272 -43 404 -60 412 -53 15 12 26 69 57 283 14 94 28 189 32
213 l7 42 -577 0 -576 0 0 -1000z m1000 835 c95 -17 118 -31 101 -64 -8 -14
-21 -21 -41 -21 -32 0 -33 -1 -51 -109 -15 -87 -37 -118 -71 -100 -18 10 -20
17 -14 65 21 180 21 162 -8 173 -28 11 -37 55 -13 64 6 3 12 6 12 6 0 1 38 -6
85 -14z m-339 -1362 c25 -10 43 -26 54 -49 20 -42 13 -68 -27 -110 -29 -31
-29 -32 -13 -70 20 -48 14 -64 -25 -64 -26 0 -33 7 -57 53 l-27 52 -11 -40
c-9 -31 -17 -41 -37 -43 -47 -6 -51 14 -29 148 11 66 25 128 32 136 15 18 78
12 140 -13z"/>
<path d="M584 415 c-9 -23 3 -45 26 -45 29 0 38 30 15 46 -24 18 -34 18 -41
-1z"/>
<path d="M1155 1780 c-13 -21 -46 -223 -37 -232 5 -5 33 -11 63 -14 53 -5 53
-4 20 8 -45 17 -58 39 -45 75 7 22 16 29 44 31 l35 4 -32 13 c-26 11 -33 20
-33 43 0 38 17 52 65 53 l40 1 -50 14 c-60 16 -62 17 -70 4z"/>
<path d="M474 1506 c-148 -34 -264 -131 -315 -267 -100 -262 26 -516 295 -594
89 -26 232 -18 309 18 96 44 134 79 142 133 3 25 4 48 2 50 -3 3 -35 10 -72
15 l-67 11 -32 -31 c-43 -42 -95 -61 -165 -61 -107 0 -189 47 -238 135 -25 44
-28 60 -28 140 0 82 3 97 33 157 49 100 127 150 232 150 107 0 190 -44 230
-122 18 -36 22 -38 92 -48 40 -6 73 -10 74 -9 1 1 4 25 8 53 6 49 4 54 -32
103 -43 57 -84 91 -152 125 -91 46 -221 63 -316 42z"/>
<path d="M1074 1440 c-12 -4 -25 -17 -29 -27 -4 -10 -36 -193 -70 -408 -56
-346 -61 -393 -49 -416 7 -15 21 -29 30 -33 21 -8 761 -126 790 -126 12 0 32
8 43 17 20 16 29 61 81 393 33 206 60 392 60 412 0 38 -27 78 -52 78 -6 0
-181 27 -389 60 -413 66 -385 62 -415 50z m164 -66 c48 -5 62 -10 62 -23 0 -9
-12 -81 -26 -160 -17 -94 -23 -145 -16 -150 14 -9 362 -55 368 -49 3 3 17 74
33 157 15 83 30 154 33 157 3 3 44 0 92 -7 67 -9 86 -16 86 -28 1 -31 -133
-766 -141 -775 -4 -4 -45 -3 -93 4 -67 9 -86 16 -86 28 0 9 12 83 27 164 14
81 24 151 20 154 -7 8 -366 58 -372 53 -2 -3 -16 -70 -30 -149 -36 -201 -27
-183 -93 -175 -110 12 -122 16 -122 37 0 20 128 743 136 767 3 9 13 12 32 8
15 -3 55 -9 90 -13z"/>
<path d="M971 371 c-11 -15 -25 -40 -30 -55 -9 -23 -8 -25 12 -23 21 2 22 -1
19 -67 -3 -52 0 -67 10 -64 13 5 52 203 43 226 -8 21 -33 13 -54 -17z"/>
<path d="M1164 364 c-89 -31 -112 -144 -43 -210 26 -25 38 -29 89 -29 48 0 63
4 84 24 103 97 4 261 -130 215z m90 -25 c39 -18 59 -70 46 -118 -24 -91 -135
-109 -176 -30 -47 93 38 189 130 148z"/>
</g>
</svg>
