<?xml version="1.0" standalone="no"?>
<!DOCTYPE svg PUBLIC "-//W3C//DTD SVG 20010904//EN"
 "http://www.w3.org/TR/2001/REC-SVG-20010904/DTD/svg10.dtd">
<svg version="1.0" xmlns="http://www.w3.org/2000/svg"
 width="1080.000000pt" height="1080.000000pt" viewBox="0 0 1080.000000 1080.000000"
 preserveAspectRatio="xMidYMid meet">
<metadata>
Created by potrace 1.14, written by Peter Selinger 2001-2017
</metadata>
<g transform="translate(0.000000,1080.000000) scale(0.100000,-0.100000)"
fill="#000000" stroke="none">
<path d="M2695 10590 c-950 -30 -1425 -126 -1780 -361 -104 -69 -277 -242
-344 -344 -178 -271 -279 -628 -325 -1155 -40 -450 -41 -524 -41 -3350 0
-2496 2 -2759 18 -3010 56 -889 177 -1297 479 -1616 282 -298 681 -447 1358
-508 441 -40 544 -41 3365 -41 2492 0 2754 2 3005 18 889 56 1297 177 1616
479 298 282 447 681 508 1358 40 441 41 544 41 3365 0 2495 -2 2753 -18 2999
-50 773 -139 1144 -348 1461 -69 104 -242 277 -344 344 -258 170 -608 272
-1096 321 -428 43 -473 43 -3224 45 -1446 1 -2738 -1 -2870 -5z m1525 -2627
c266 -65 461 -174 645 -358 150 -150 244 -300 310 -498 69 -206 65 -66 65
-2289 l0 -2009 -657 4 c-722 4 -699 2 -898 68 -368 123 -685 443 -809 819 -65
198 -60 14 -63 2258 l-3 2033 662 -4 c631 -3 667 -4 748 -24z m3767 -2005 c-3
-1911 -4 -2038 -21 -2108 -63 -265 -173 -470 -348 -649 -175 -179 -385 -297
-638 -359 l-105 -26 -657 -3 -658 -4 0 2009 c0 2225 -4 2082 66 2291 85 256
256 486 476 641 149 105 359 193 528 220 41 6 82 13 90 15 8 1 297 3 643 4
l627 1 -3 -2032z"/>
</g>
</svg>
