<svg width="393" height="589" viewBox="0 0 393 589" fill="none" xmlns="http://www.w3.org/2000/svg">
<g opacity="0.08">
<g clip-path="url(#clip0_384_912)">
<rect x="-13" y="12.4037" width="45" height="45" rx="7" transform="rotate(-16 -13 12.4037)" fill="white"/>
<path d="M19.4744 14.1241L20.1883 16.6138L13.7959 18.4468L19.8062 39.4071L16.7446 40.285L10.7343 19.3247L4.30826 21.1673L3.59436 18.6777L19.4744 14.1241Z" fill="#1C1C1C"/>
</g>
<g clip-path="url(#clip1_384_912)">
<rect x="115.595" y="454.776" width="45" height="45" rx="7" transform="rotate(45 115.595 454.776)" fill="white"/>
<path d="M132.627 487.053L115.501 504.179L113.249 501.927L126.019 489.157L107.557 496.235L105.973 494.651L113.051 476.139L100.256 488.934L98.0037 486.682L115.13 469.556L117.555 471.981L109.735 492.473L130.227 484.652L132.627 487.053Z" fill="#1C1C1C"/>
</g>
<rect x="362.156" y="160.765" width="45" height="45" rx="7" transform="rotate(20 362.156 160.765)" fill="url(#paint0_linear_384_912)"/>
<path d="M363.765 185.598C364.579 183.362 365.813 181.539 367.468 180.13C369.131 178.699 371.012 177.795 373.112 177.416C375.233 177.046 377.357 177.248 379.484 178.022C381.983 178.932 383.946 180.329 385.37 182.213C386.795 184.098 387.532 186.303 387.581 188.828L383.996 187.524C383.863 185.911 383.329 184.512 382.395 183.328C381.482 182.151 380.192 181.26 378.526 180.653C376.925 180.071 375.354 179.921 373.811 180.204C372.268 180.486 370.883 181.186 369.657 182.304C368.438 183.401 367.494 184.869 366.823 186.711C366.161 188.531 365.94 190.263 366.161 191.908C366.39 193.531 367.004 194.946 368.005 196.155C369.005 197.363 370.306 198.259 371.906 198.841C373.573 199.448 375.13 199.605 376.577 199.312C378.054 199.006 379.362 198.277 380.501 197.127L384.086 198.432C382.433 200.314 380.455 201.518 378.152 202.046C375.857 202.551 373.46 202.349 370.961 201.439C368.834 200.665 367.073 199.466 365.678 197.841C364.313 196.202 363.449 194.31 363.087 192.167C362.725 190.024 362.951 187.834 363.765 185.598Z" fill="#1C1C1C"/>
<g clip-path="url(#clip2_384_912)">
<rect x="242.765" y="382.765" width="45" height="45" rx="7" transform="rotate(-90 242.765 382.765)" fill="#1C1C1C"/>
<path d="M277.765 355.725L267.79 361.535V365.385H277.765V368.57H253.37V360.695C253.37 358.852 253.685 357.3 254.315 356.04C254.945 354.757 255.797 353.8 256.87 353.17C257.943 352.54 259.168 352.225 260.545 352.225C262.225 352.225 263.707 352.715 264.99 353.695C266.273 354.652 267.125 356.098 267.545 358.035L277.765 351.91V355.725ZM265.235 365.385V360.695C265.235 358.968 264.815 357.673 263.975 356.81C263.112 355.947 261.968 355.515 260.545 355.515C259.098 355.515 257.978 355.947 257.185 356.81C256.392 357.65 255.995 358.945 255.995 360.695V365.385H265.235Z" fill="white"/>
</g>
<g clip-path="url(#clip3_384_912)">
<rect x="211.412" y="74.7651" width="45" height="45" rx="7" transform="rotate(15 211.412 74.7651)" fill="#1C1C1C"/>
<path d="M226.717 92.5265L224.606 100.404L233.193 102.704L232.514 105.24L223.926 102.939L221.752 111.053L231.354 113.626L230.674 116.161L217.997 112.764L224.319 89.1666L236.997 92.5636L236.318 95.0991L226.717 92.5265Z" fill="white"/>
</g>
<g clip-path="url(#clip4_384_912)">
<rect x="61.7651" y="252.579" width="45" height="45" rx="7" transform="rotate(-10 61.7651 252.579)" fill="url(#paint1_linear_384_912)"/>
<path d="M94.6182 257.555L98.8544 281.579L95.7178 282.133L93.7972 271.241L81.561 273.398L83.4815 284.29L80.3449 284.843L76.1088 260.819L79.2454 260.266L81.1052 270.813L93.3414 268.655L91.4816 258.108L94.6182 257.555Z" fill="#1C1C1C"/>
</g>
<g clip-path="url(#clip5_384_912)">
<rect x="300.765" y="544.579" width="45" height="45" rx="7" transform="rotate(-10 300.765 544.579)" fill="url(#paint2_linear_384_912)"/>
<path d="M328.802 575.424C326.573 575.817 324.449 575.659 322.428 574.949C320.403 574.216 318.687 573.014 317.279 571.343C315.889 569.646 314.988 567.625 314.575 565.281C314.161 562.937 314.319 560.741 315.048 558.694C315.796 556.619 316.998 554.902 318.654 553.544C320.306 552.163 322.246 551.276 324.475 550.883C326.727 550.486 328.865 550.654 330.89 551.387C332.911 552.097 334.613 553.289 335.999 554.964C337.384 556.639 338.285 558.66 338.702 561.026C339.12 563.393 338.964 565.6 338.235 567.648C337.506 569.696 336.316 571.41 334.664 572.791C333.008 574.15 331.054 575.027 328.802 575.424ZM328.322 572.701C330 572.406 331.436 571.75 332.631 570.733C333.849 569.713 334.709 568.412 335.212 566.831C335.738 565.245 335.833 563.499 335.497 561.592C335.157 559.661 334.47 558.053 333.438 556.766C332.424 555.452 331.182 554.522 329.712 553.976C328.241 553.429 326.656 553.306 324.955 553.606C323.255 553.906 321.807 554.564 320.612 555.58C319.417 556.596 318.556 557.897 318.03 559.483C317.523 561.041 317.44 562.785 317.78 564.716C318.117 566.623 318.791 568.233 319.805 569.547C320.842 570.857 322.095 571.785 323.566 572.332C325.059 572.874 326.645 572.997 328.322 572.701Z" fill="#1C1C1C"/>
</g>
</g>
<defs>
<linearGradient id="paint0_linear_384_912" x1="384.656" y1="160.765" x2="384.656" y2="205.765" gradientUnits="userSpaceOnUse">
<stop stop-color="#00FE44"/>
<stop offset="1" stop-color="#299E48"/>
</linearGradient>
<linearGradient id="paint1_linear_384_912" x1="84.2651" y1="252.579" x2="84.2651" y2="297.579" gradientUnits="userSpaceOnUse">
<stop stop-color="#FFE927"/>
<stop offset="1" stop-color="#FFDBB0"/>
</linearGradient>
<linearGradient id="paint2_linear_384_912" x1="323.265" y1="544.579" x2="323.265" y2="589.579" gradientUnits="userSpaceOnUse">
<stop stop-color="#FFE927"/>
<stop offset="1" stop-color="#FFDBB0"/>
</linearGradient>
<clipPath id="clip0_384_912">
<rect x="-13" y="12.4037" width="45" height="45" rx="7" transform="rotate(-16 -13 12.4037)" fill="white"/>
</clipPath>
<clipPath id="clip1_384_912">
<rect x="115.595" y="454.776" width="45" height="45" rx="7" transform="rotate(45 115.595 454.776)" fill="white"/>
</clipPath>
<clipPath id="clip2_384_912">
<rect x="242.765" y="382.765" width="45" height="45" rx="7" transform="rotate(-90 242.765 382.765)" fill="white"/>
</clipPath>
<clipPath id="clip3_384_912">
<rect x="211.412" y="74.7651" width="45" height="45" rx="7" transform="rotate(15 211.412 74.7651)" fill="white"/>
</clipPath>
<clipPath id="clip4_384_912">
<rect x="61.7651" y="252.579" width="45" height="45" rx="7" transform="rotate(-10 61.7651 252.579)" fill="white"/>
</clipPath>
<clipPath id="clip5_384_912">
<rect x="300.765" y="544.579" width="45" height="45" rx="7" transform="rotate(-10 300.765 544.579)" fill="white"/>
</clipPath>
</defs>
</svg>
