<svg width="145" height="44" viewBox="0 0 145 44" fill="none" xmlns="http://www.w3.org/2000/svg">
<path d="M16.443 11.642V15.615H11.049V32H6.09V15.615H0.696V11.642H16.443ZM23.8908 15.615V19.733H30.5318V23.561H23.8908V28.027H31.4018V32H18.9318V11.642H31.4018V15.615H23.8908ZM88.0218 32L83.7878 24.315H82.5988V32H77.6398V11.642H85.9628C87.5675 11.642 88.9305 11.9223 90.0518 12.483C91.1925 13.0437 92.0431 13.817 92.6038 14.803C93.1645 15.7697 93.4448 16.8523 93.4448 18.051C93.4448 19.4043 93.0581 20.6127 92.2848 21.676C91.5308 22.7393 90.4095 23.4933 88.9208 23.938L93.6188 32H88.0218ZM82.5988 20.806H85.6728C86.5815 20.806 87.2581 20.5837 87.7028 20.139C88.1668 19.6943 88.3988 19.066 88.3988 18.254C88.3988 17.4807 88.1668 16.8717 87.7028 16.427C87.2581 15.9823 86.5815 15.76 85.6728 15.76H82.5988V20.806ZM119.613 11.642V32H114.654V19.791L110.101 32H106.099L101.517 19.762V32H96.5578V11.642H102.416L108.129 25.736L113.784 11.642H119.613ZM132.807 32.203C130.893 32.203 129.134 31.7583 127.529 30.869C125.944 29.9797 124.677 28.7423 123.73 27.157C122.802 25.5523 122.338 23.7543 122.338 21.763C122.338 19.7717 122.802 17.9833 123.73 16.398C124.677 14.8127 125.944 13.5753 127.529 12.686C129.134 11.7967 130.893 11.352 132.807 11.352C134.721 11.352 136.471 11.7967 138.056 12.686C139.661 13.5753 140.917 14.8127 141.826 16.398C142.754 17.9833 143.218 19.7717 143.218 21.763C143.218 23.7543 142.754 25.5523 141.826 27.157C140.898 28.7423 139.641 29.9797 138.056 30.869C136.471 31.7583 134.721 32.203 132.807 32.203ZM132.807 27.679C134.431 27.679 135.726 27.1377 136.693 26.055C137.679 24.9723 138.172 23.5417 138.172 21.763C138.172 19.965 137.679 18.5343 136.693 17.471C135.726 16.3883 134.431 15.847 132.807 15.847C131.164 15.847 129.849 16.3787 128.863 17.442C127.896 18.5053 127.413 19.9457 127.413 21.763C127.413 23.561 127.896 25.0013 128.863 26.084C129.849 27.1473 131.164 27.679 132.807 27.679Z" fill="#3EC863"/>
<g clip-path="url(#clip0_117_598)">
<rect x="32.6416" y="11" width="22.5263" height="21.6758" rx="4" transform="rotate(7 32.6416 11)" fill="#B858B4"/>
<path d="M35.8828 22.1853C36.0402 20.9029 36.4706 19.788 37.174 18.8407C37.8789 17.8808 38.7635 17.1726 39.8277 16.7163C40.9045 16.2614 42.0526 16.1089 43.2721 16.2586C44.7054 16.4346 45.9138 16.9339 46.8976 17.7566C47.8813 18.5793 48.5404 19.6556 48.8748 20.9856L46.8192 20.7333C46.5519 19.8964 46.0987 19.2218 45.4597 18.7095C44.8333 18.1987 44.0424 17.8846 43.0869 17.7673C42.1691 17.6546 41.3194 17.7672 40.5377 18.1051C39.756 18.4431 39.1091 18.9826 38.597 19.7237C38.0864 20.4522 37.7663 21.3445 37.6366 22.4006C37.5085 23.4441 37.6032 24.3873 37.9209 25.2303C38.24 26.0608 38.738 26.7345 39.4147 27.2514C40.0914 27.7684 40.8886 28.0833 41.8064 28.196C42.7619 28.3133 43.6046 28.2062 44.3344 27.8747C45.0784 27.5321 45.6813 26.9872 46.1431 26.2399L48.1987 26.4923C47.554 27.6893 46.6549 28.568 45.5013 29.1282C44.3493 29.6759 43.0567 29.8618 41.6235 29.6858C40.404 29.536 39.3261 29.1166 38.3897 28.4273C37.4675 27.727 36.7798 26.8322 36.3265 25.7429C35.8732 24.6535 35.7253 23.4676 35.8828 22.1853Z" fill="#1C1C1C"/>
</g>
<g clip-path="url(#clip1_117_598)">
<rect x="56.6416" y="14" width="22.5263" height="21.6758" rx="4" transform="rotate(7 56.6416 14)" fill="#807D97"/>
<path d="M71.953 20.0056L70.3391 33.1499L68.623 32.9392L69.3547 26.98L62.6599 26.158L61.9282 32.1172L60.2121 31.9065L61.826 18.7622L63.5421 18.9729L62.8336 24.7436L69.5283 25.5656L70.2369 19.7949L71.953 20.0056Z" fill="#1C1C1C"/>
</g>
<defs>
<clipPath id="clip0_117_598">
<rect x="32.6416" y="11" width="22.5263" height="21.6758" rx="4" transform="rotate(7 32.6416 11)" fill="white"/>
</clipPath>
<clipPath id="clip1_117_598">
<rect x="56.6416" y="14" width="22.5263" height="21.6758" rx="4" transform="rotate(7 56.6416 14)" fill="white"/>
</clipPath>
</defs>
</svg>
